<svg width="19" height="19" viewBox="0 0 19 19" fill="none" xmlns="http://www.w3.org/2000/svg">
<path d="M8.56268 16C10.26 15.9996 11.9085 15.4054 13.2455 14.312L17.4493 18.708L18.8014 17.294L14.5977 12.898C15.6439 11.4997 16.2124 9.77544 16.2128 8C16.2128 3.589 12.7808 0 8.56268 0C4.34458 0 0.912537 3.589 0.912537 8C0.912537 12.411 4.34458 16 8.56268 16ZM8.56268 2C11.727 2 14.3003 4.691 14.3003 8C14.3003 11.309 11.727 14 8.56268 14C5.39839 14 2.82507 11.309 2.82507 8C2.82507 4.691 5.39839 2 8.56268 2Z" fill="#1F2B2E"/>
</svg>
